<?xml version="1.0" encoding="utf-8"?><svg xmlns="http://www.w3.org/2000/svg" xmlns:xlink="http://www.w3.org/1999/xlink"><symbol fill="none" viewBox="0 0 80 80" id="aim" xmlns="http://www.w3.org/2000/svg"><path d="M79.866 12.092a1.562 1.562 0 00-1.301-1.034l-8.702-.967-.966-8.701a1.562 1.562 0 00-2.66-.93L53.842 12.9a35.836 35.836 0 00-17.906-4.774C16.078 8.125 0 24.199 0 44.063 0 63.922 16.074 80 35.938 80c19.86 0 35.937-16.074 35.937-35.938a35.838 35.838 0 00-4.774-17.905l12.397-12.442.002-.002a1.562 1.562 0 00.366-1.621zM66.15 4.976l-.019.019.019-.02zm0 0l.662 5.957-10.23 10.247-.66-5.94L66.151 4.976zm-39.4 26.332a1.563 1.563 0 002.128.596C31.188 30.605 33.43 30 35.937 30c3.222 0 6.28 1.084 8.765 3.075l-4.461 4.467a7.748 7.748 0 00-4.303-1.292c-4.308 0-7.813 3.505-7.813 7.813 0 4.307 3.505 7.812 7.813 7.812 4.307 0 7.812-3.505 7.812-7.812a7.748 7.748 0 00-1.298-4.313l4.46-4.467A13.94 13.94 0 0150 44.063c0 7.754-6.308 14.062-14.062 14.062s-14.063-6.308-14.063-14.062c0-1.344.163-2.32.408-3.373a1.563 1.563 0 00-3.044-.708c-.347 1.494-.489 2.676-.489 4.08 0 9.478 7.71 17.188 17.188 17.188 9.477 0 17.187-7.71 17.187-17.187 0-4.065-1.408-7.917-3.992-11.004l4.425-4.431c4.427 5.043 6.47 11.674 5.627 18.43C57.692 58.712 47.698 67.5 35.937 67.5 23.014 67.5 12.5 56.986 12.5 44.062c0-12.923 10.514-23.437 23.438-23.437a23.251 23.251 0 0115.41 5.794l-4.426 4.432a17.05 17.05 0 00-10.984-3.976c-3.024 0-5.834.754-8.592 2.305a1.563 1.563 0 00-.595 2.128zm8.082 13.86a1.563 1.563 0 002.21-.001l3.123-3.128c.3.624.459 1.311.459 2.023a4.693 4.693 0 01-4.688 4.688 4.693 4.693 0 01-4.687-4.688 4.693 4.693 0 016.705-4.231l-3.123 3.127c-.61.611-.61 1.6.001 2.21zm33.917-1.105c0 18.092-14.72 32.812-32.813 32.812-18.092 0-32.812-14.72-32.812-32.813 0-18.092 14.72-32.812 32.813-32.812a32.71 32.71 0 0116.918 4.693l.896 8.07-.192.19A26.357 26.357 0 0035.937 17.5c-14.646 0-26.562 11.916-26.562 26.563 0 14.646 11.916 26.562 26.563 26.562 13.328 0 24.654-9.96 26.347-23.175.965-7.726-1.4-15.306-6.513-21.04l.168-.168 8.116.902a32.71 32.71 0 014.694 16.919zM64.76 24.078l-5.994-.666a2660.01 2660.01 0 013.512-3.516c-.04.038-1.135 1.136 6.744-6.754l5.975.664L64.76 24.078z" fill="#A7A7A7"/></symbol><symbol fill="none" viewBox="0 0 81 95" id="brilliant" xmlns="http://www.w3.org/2000/svg"><path d="M66.576 21.266a2.824 2.824 0 00-2.438-1.407H16.194a2.822 2.822 0 00-2.438 1.407l-3.422 5.926a1.385 1.385 0 102.399 1.385l2.635-4.564 10 17.32h-20l4.228-7.322a1.385 1.385 0 10-2.399-1.385L2.08 41.489a2.24 2.24 0 00.27 2.616l36.105 40.439a2.25 2.25 0 001.673.75h.001a2.25 2.25 0 001.673-.748l36.179-40.44a2.24 2.24 0 00.27-2.618L66.576 21.266zM43.088 41.334H30.166l10-17.32 10 17.32h-.12a1.385 1.385 0 000 2.77h.667l-10.58 35.91-10.517-35.91h13.472a1.385 1.385 0 000-2.77zm9.477-1.385l-10-17.32h20l-10 17.32zm1.036 4.155h20.664l-30.812 34.44 10.148-34.44zm21.363-2.77h-20l10-17.32 10 17.32zM17.767 22.628h20l-10 17.32-10-17.32zm8.962 21.476L36.817 78.55 6.062 44.104H26.73zM73.686 80.13a1.384 1.384 0 00-.208-.114c-.88-.389-1.69-.848-2.41-1.365a1.385 1.385 0 00-1.615 2.251c.422.303.869.59 1.336.857-2.991 1.706-5.066 4.152-6.082 7.175-1.016-3.023-3.09-5.468-6.08-7.175 2.99-1.707 5.065-4.152 6.08-7.175l.043.125a1.385 1.385 0 002.616-.911 10.269 10.269 0 01-.275-.932l-.576-2.352a1.857 1.857 0 00-1.808-1.419c-.86 0-1.603.583-1.808 1.419l-.575 2.352c-.982 4.008-4.016 6.101-6.388 7.15-.072.033-.142.07-.208.115a1.953 1.953 0 00-.871 1.629c0 .655.325 1.264.871 1.628.066.044.136.082.208.114 2.372 1.05 5.406 3.142 6.388 7.151l.575 2.352a1.857 1.857 0 001.808 1.419c.86 0 1.604-.584 1.808-1.419l.576-2.352c.981-4.009 4.015-6.101 6.387-7.15.073-.033.142-.07.208-.115.546-.363.872-.972.872-1.629 0-.656-.326-1.265-.872-1.629zm6.569-61.014a1.371 1.371 0 00-.209-.114c-1.534-.679-2.487-1.735-2.83-3.14l-.29-1.186a1.622 1.622 0 00-1.58-1.239c-.75 0-1.4.51-1.578 1.239l-.29 1.186c-.344 1.405-1.296 2.461-2.831 3.14-.073.032-.142.07-.208.114a1.67 1.67 0 00-.745 1.393 1.67 1.67 0 00.953 1.507c1.535.679 2.487 1.735 2.831 3.14l.29 1.186a1.624 1.624 0 003.157-.001l.29-1.185c.345-1.405 1.297-2.461 2.832-3.14.072-.032.142-.07.207-.114a1.671 1.671 0 000-2.785zm-4.908 3.385a7.155 7.155 0 00-1.817-1.992 7.15 7.15 0 001.817-1.992 7.151 7.151 0 001.817 1.992 7.15 7.15 0 00-1.817 1.992zM5.404 16.045l.415 1.698c.19.776.881 1.318 1.68 1.318.799 0 1.49-.542 1.68-1.317l.415-1.699c.672-2.743 2.76-4.18 4.395-4.904.072-.032.142-.07.208-.114.501-.334.8-.894.8-1.496 0-.603-.299-1.162-.8-1.497a1.373 1.373 0 00-.208-.114c-1.634-.723-3.723-2.16-4.395-4.903l-.416-1.699A1.725 1.725 0 007.498 0C6.7 0 6.01.542 5.82 1.318l-.416 1.698C4.733 5.76 2.643 7.197 1.01 7.92c-.073.032-.142.07-.208.114A1.796 1.796 0 00.8 11.027c.067.044.136.082.209.114 1.634.723 3.723 2.16 4.395 4.904zM7.499 5.397c.763 1.67 1.996 3.067 3.65 4.134-1.654 1.066-2.887 2.463-3.65 4.134-.764-1.671-1.997-3.068-3.65-4.134C5.502 8.464 6.735 7.067 7.5 5.397z" fill="#A7A7A7"/></symbol><symbol fill="none" viewBox="0 0 80 80" id="coins" xmlns="http://www.w3.org/2000/svg"><path d="M53.43 50.837c-1.895 0-3.437-1.335-3.437-2.975 0-1.64 1.542-2.975 3.437-2.975 1.896 0 3.438 1.334 3.438 2.975a1.563 1.563 0 003.125 0c0-2.863-2.134-5.27-5-5.924v-.813a1.563 1.563 0 00-3.125 0v.813c-2.867.653-5 3.06-5 5.924 0 3.363 2.944 6.1 6.562 6.1 1.896 0 3.438 1.335 3.438 2.975 0 1.64-1.542 2.976-3.438 2.976-1.895 0-3.437-1.335-3.437-2.976a1.563 1.563 0 00-3.125 0c0 2.864 2.133 5.271 5 5.925v.674a1.563 1.563 0 003.125 0v-.675c2.866-.653 5-3.06 5-5.924 0-3.363-2.944-6.1-6.563-6.1zm17.114-9.294a20.357 20.357 0 00-8.316-7.36A1.562 1.562 0 1060.874 37c5.923 2.847 9.75 8.932 9.75 15.5 0 2.81-.692 5.598-2.002 8.061a1.562 1.562 0 002.758 1.468 20.353 20.353 0 002.37-9.529c0-3.9-1.109-7.689-3.206-10.957zm-14.658-9.355h-.105a1.563 1.563 0 000 3.125h.098a1.562 1.562 0 00.007-3.125zM46.001 68c-5.923-2.847-9.75-8.931-9.75-15.5 0-2.81.692-5.598 2.003-8.06a1.562 1.562 0 10-2.76-1.469 20.353 20.353 0 00-2.369 9.53c0 3.9 1.109 7.688 3.206 10.956a20.36 20.36 0 008.316 7.36A1.563 1.563 0 0046.001 68zm5.093 1.688h-.09a1.563 1.563 0 00-.014 3.125h.104a1.563 1.563 0 000-3.126z" fill="#A7A7A7"/><path d="M60.532 26.901a7.165 7.165 0 00-.694-1.276h4.068c3.963 0 7.188-3.224 7.188-7.188 0-3.963-3.225-7.187-7.188-7.187H51.394a7.146 7.146 0 001.262-4.063C52.656 3.224 49.432 0 45.47 0H7.187C3.224 0 0 3.224 0 7.187c0 3.964 3.224 7.188 7.187 7.188H19.7a7.145 7.145 0 00-1.262 4.063c0 1.506.466 2.905 1.262 4.062h-4.075c-3.963 0-7.188 3.224-7.188 7.187a7.176 7.176 0 002.722 5.625 7.176 7.176 0 000 11.25 7.176 7.176 0 000 11.25 7.176 7.176 0 00-2.722 5.625c0 3.963 3.225 7.188 7.188 7.188h18.414c4.85 5.188 11.752 8.438 19.399 8.438C68.084 79.063 80 67.147 80 52.5c0-12.19-8.255-22.487-19.468-25.599zm3.374-12.526a4.067 4.067 0 014.063 4.063 4.067 4.067 0 01-4.063 4.062H25.625a4.067 4.067 0 01-4.063-4.063 4.067 4.067 0 014.063-4.062h38.281zM7.187 11.25a4.067 4.067 0 01-4.062-4.063 4.067 4.067 0 014.062-4.062H45.47a4.067 4.067 0 014.062 4.062 4.067 4.067 0 01-4.062 4.063H7.187zm8.438 14.375h38.281c.63 0 1.232.146 1.773.408a26.755 26.755 0 00-2.241-.095c-7.336 0-13.986 2.989-18.797 7.812H15.625a4.067 4.067 0 01-4.063-4.063 4.067 4.067 0 014.063-4.062zm0 11.25h16.346A26.49 26.49 0 0027.955 45h-12.33a4.067 4.067 0 01-4.063-4.063 4.067 4.067 0 014.063-4.062zm0 11.25h11.612a26.628 26.628 0 00-.096 8.125H15.625a4.067 4.067 0 01-4.063-4.063 4.067 4.067 0 014.063-4.062zm0 19.375a4.067 4.067 0 01-4.063-4.063 4.067 4.067 0 014.063-4.062h12.154a26.458 26.458 0 003.749 8.125H15.625zm37.813 8.438C40.514 75.938 30 65.424 30 52.5c0-12.923 10.514-23.437 23.438-23.437 12.923 0 23.437 10.514 23.437 23.437 0 12.924-10.514 23.438-23.437 23.438z" fill="#A7A7A7"/></symbol><symbol fill="none" viewBox="0 0 73 81" id="document" xmlns="http://www.w3.org/2000/svg"><path d="M12.055 37.505H52.24a1.34 1.34 0 100-2.679H12.055a1.34 1.34 0 000 2.679zm0 8.037H52.24a1.34 1.34 0 100-2.68H12.055a1.34 1.34 0 000 2.68zm34.826 6.698c0-.74-.6-1.34-1.34-1.34H12.056a1.34 1.34 0 000 2.679h33.487c.74 0 1.34-.6 1.34-1.34zM22.77 29.468h29.47a1.34 1.34 0 000-2.679H22.77a1.34 1.34 0 000 2.68zm-10.715 0h5.358a1.34 1.34 0 100-2.679h-5.358a1.34 1.34 0 000 2.68z" fill="#A7A7A7"/><path d="M72.682 59.862a1.34 1.34 0 00-1.274-.925h-7.114V4.018A4.018 4.018 0 0060.276 0H18.753c-.029 0-.054.013-.08.015a1.304 1.304 0 00-.321.061.883.883 0 00-.123.04 1.312 1.312 0 00-.386.24L.43 16.43a1.31 1.31 0 00-.335.536 1.32 1.32 0 00-.078.372c0 .028-.017.054-.017.082v50.893c0 2.22 1.8 4.018 4.018 4.018H45.7l-2.248 6.916a1.34 1.34 0 002.062 1.496l9.404-6.83 9.405 6.831a1.34 1.34 0 002.06-1.496l-3.591-11.056 9.403-6.831a1.34 1.34 0 00.487-1.499zM17.413 4.4v10.335c0 .74-.6 1.34-1.34 1.34H4.767L17.413 4.399zm29.158 65.253H4.018c-.74 0-1.34-.6-1.34-1.34v-49.56h13.396a4.018 4.018 0 004.018-4.018V2.68h40.184c.74 0 1.34.6 1.34 1.34v54.918h-1.832l-3.592-11.055a1.34 1.34 0 00-2.545 0l-3.595 11.055H38.428a1.34 1.34 0 00-.786 2.423l9.403 6.83-.474 1.462zm13.858-3.054a1.34 1.34 0 00-.487 1.496l2.62 8.06-6.856-4.98a1.34 1.34 0 00-1.576 0l-6.855 4.98 2.619-8.06a1.34 1.34 0 00-.486-1.496l-6.857-4.983h8.475a1.34 1.34 0 001.273-.925l2.62-8.06 2.618 8.06c.18.552.693.925 1.274.925h8.474l-6.856 4.983z" fill="#A7A7A7"/></symbol><symbol fill="none" viewBox="0 0 12 24" id="f" xmlns="http://www.w3.org/2000/svg"><path d="M9.81 3.985h2.191V.169C11.623.117 10.323 0 8.809 0 5.65 0 3.486 1.987 3.486 5.639V9H0v4.266h3.486V24H7.76V13.267h3.345l.531-4.266H7.759V6.062c.001-1.233.333-2.077 2.051-2.077z" fill="#fff"/></symbol><symbol fill="none" viewBox="0 0 24 24" id="in" xmlns="http://www.w3.org/2000/svg"><path d="M17.377 0H6.623A6.63 6.63 0 000 6.623v10.754A6.63 6.63 0 006.623 24h10.754A6.63 6.63 0 0024 17.377V6.623A6.63 6.63 0 0017.377 0zm4.494 17.377a4.499 4.499 0 01-4.494 4.494H6.623a4.499 4.499 0 01-4.494-4.494V6.623A4.499 4.499 0 016.623 2.13h10.754a4.499 4.499 0 014.494 4.494v10.754z" fill="#fff"/><path d="M12 5.816A6.191 6.191 0 005.816 12 6.191 6.191 0 0012 18.184 6.191 6.191 0 0018.184 12 6.191 6.191 0 0012 5.816zm0 10.239A4.06 4.06 0 017.945 12 4.06 4.06 0 0112 7.945 4.06 4.06 0 0116.055 12 4.06 4.06 0 0112 16.055zM18.444 4.01c-.41 0-.814.167-1.104.458a1.57 1.57 0 00-.458 1.104c0 .41.167.813.458 1.104.29.29.693.458 1.104.458.411 0 .813-.168 1.104-.458a1.566 1.566 0 000-2.208 1.568 1.568 0 00-1.104-.457z" fill="#fff"/></symbol><symbol fill="none" viewBox="0 0 42 42" id="plus" xmlns="http://www.w3.org/2000/svg"><path d="M21 41c11.046 0 20-8.954 20-20S32.046 1 21 1 1 9.954 1 21s8.954 20 20 20zm-8-20h16m-8-8v16" stroke="#363130" stroke-width="1.3" stroke-miterlimit="10" stroke-linecap="round" stroke-linejoin="round"/></symbol><symbol fill="none" viewBox="0 0 26 26" id="popup-close" xmlns="http://www.w3.org/2000/svg"><path d="M25.276 23.26L2.648.633l-1.94 1.94L23.337 25.2l1.94-1.94z" fill="#272526"/><path d="M23.338.632L.711 23.26l1.94 1.94L25.278 2.572l-1.94-1.94z" fill="#272526"/></symbol><symbol fill="none" viewBox="0 0 24 20" id="t" xmlns="http://www.w3.org/2000/svg"><path d="M24 2.308c-.892.392-1.843.651-2.835.778A4.893 4.893 0 0023.33.365a9.833 9.833 0 01-3.12 1.191 4.919 4.919 0 00-8.511 3.365c0 .39.033.764.114 1.121C7.721 5.845 4.103 3.883 1.67.897a4.954 4.954 0 00-.673 2.487c0 1.704.877 3.214 2.185 4.089A4.859 4.859 0 01.96 6.867v.054a4.943 4.943 0 003.942 4.834c-.4.11-.837.162-1.29.162a4.35 4.35 0 01-.932-.083c.638 1.948 2.447 3.38 4.598 3.427a9.886 9.886 0 01-6.1 2.099c-.404 0-.791-.018-1.178-.068A13.852 13.852 0 007.548 19.5c9.054 0 14.004-7.5 14.004-14.001 0-.217-.008-.427-.018-.636A9.816 9.816 0 0024 2.308z" fill="#fff"/></symbol><symbol fill="none" viewBox="0 0 24 14" id="vk" xmlns="http://www.w3.org/2000/svg"><path d="M19.916 8.028c-.388-.49-.277-.708 0-1.146.005-.005 3.208-4.43 3.538-5.932l.002-.001c.164-.547 0-.949-.793-.949h-2.624c-.668 0-.976.345-1.141.731 0 0-1.336 3.198-3.226 5.271-.61.6-.893.791-1.226.791-.163 0-.418-.192-.418-.739V.95c0-.656-.188-.949-.74-.949H9.16c-.419 0-.668.306-.668.591 0 .622.945.765 1.043 2.515v3.797c0 .832-.15.985-.486.985-.892 0-3.057-3.21-4.34-6.886C4.451.289 4.198.001 3.525.001H.9c-.749 0-.9.345-.9.731 0 .682.892 4.073 4.148 8.553 2.17 3.058 5.226 4.716 8.006 4.716 1.671 0 1.876-.368 1.876-1.002 0-2.922-.151-3.198.686-3.198.388 0 1.056.192 2.616 1.667 1.783 1.75 2.076 2.533 3.074 2.533h2.624c.748 0 1.127-.368.909-1.095-.5-1.527-3.871-4.668-4.023-4.878z" fill="#fff"/></symbol><symbol fill="none" viewBox="0 0 24 17" id="y" xmlns="http://www.w3.org/2000/svg"><path d="M23.469 2.429l.03.196A3.043 3.043 0 0021.431.513L21.41.508C19.54 0 12.01 0 12.01 0S4.5-.01 2.61.508A3.044 3.044 0 00.527 2.604l-.005.021c-.699 3.65-.704 8.038.031 11.947l-.03-.198a3.043 3.043 0 002.067 2.112l.021.005c1.87.509 9.4.509 9.4.509s7.51 0 9.4-.51a3.043 3.043 0 002.084-2.095l.005-.021c.318-1.698.5-3.652.5-5.648l-.001-.221.001-.23c0-1.997-.182-3.951-.531-5.846zm-13.86 9.722V4.858l6.265 3.652-6.266 3.64z" fill="#fff"/></symbol></svg>