<?xml version="1.0" encoding="utf-8"?><svg width="119" height="108" viewBox="0 0 119 108" xmlns="http://www.w3.org/2000/svg" xmlns:xlink="http://www.w3.org/1999/xlink"><svg width="16" height="12" fill="none" viewBox="0 0 16 12" id="form-checkbox-tick" xmlns="http://www.w3.org/2000/svg"><path fill-rule="evenodd" clip-rule="evenodd" d="M15.461.806a1.1 1.1 0 01.033 1.555l-8.442 8.8a1.1 1.1 0 01-1.587 0L.306 5.785A1.1 1.1 0 011.894 4.26l4.365 4.55L13.906.839a1.1 1.1 0 011.555-.033z" fill="#fff"/></svg><svg width="18" height="20" fill="none" viewBox="0 0 18 20" id="input-date" x="16" y="12" xmlns="http://www.w3.org/2000/svg"><path fill-rule="evenodd" clip-rule="evenodd" d="M12 0a1 1 0 00-1 1v1H7V1a1 1 0 00-1-1H5a1 1 0 00-1 1v1H3a3 3 0 00-3 3v12a3 3 0 003 3h12a3 3 0 003-3V5a3 3 0 00-3-3h-1V1a1 1 0 00-1-1h-1zM3 5h12v12H3V5zm1 4a1 1 0 001 1h8a1 1 0 001-1V8a1 1 0 00-1-1H5a1 1 0 00-1 1v1z" fill="#829AB2"/></svg><svg width="31" height="32" fill="none" viewBox="0 0 31 32" id="phone" x="34" y="32" xmlns="http://www.w3.org/2000/svg"><path d="M30.187 22.799l-4.335-4.335c-1.549-1.549-4.18-.93-4.8 1.083-.464 1.394-2.013 2.168-3.406 1.858-3.097-.774-7.277-4.8-8.051-8.05-.465-1.394.464-2.943 1.858-3.407 2.012-.62 2.632-3.252 1.084-4.8L8.2.813C6.962-.271 5.104-.271 4.02.813L1.079 3.755c-2.942 3.096.31 11.302 7.587 18.58 7.277 7.276 15.483 10.683 18.58 7.586l2.941-2.942c1.084-1.238 1.084-3.096 0-4.18z" fill="#fff"/></svg><svg width="26" height="26" fill="none" viewBox="0 0 26 26" id="popup-close" x="65" y="64" xmlns="http://www.w3.org/2000/svg"><path d="M25.276 23.26L2.648.633l-1.94 1.94L23.337 25.2l1.94-1.94z" fill="#272526"/><path d="M23.338.632L.711 23.26l1.94 1.94L25.278 2.572l-1.94-1.94z" fill="#272526"/></svg><svg width="14" height="9" fill="none" viewBox="0 0 14 9" id="select2-arrow" x="91" y="90" xmlns="http://www.w3.org/2000/svg"><path d="M.48 1.664C-.095 1.02.363 0 1.226 0h11.546c.863 0 1.32 1.02.748 1.664L7.747 8.16a1 1 0 01-1.494 0L.479 1.664z" fill="#829AB2"/></svg><svg width="14" height="9" fill="none" viewBox="0 0 14 9" id="select2-arrow-active" x="105" y="99" xmlns="http://www.w3.org/2000/svg"><path d="M.48 1.664C-.095 1.02.363 0 1.226 0h11.546c.863 0 1.32 1.02.748 1.664L7.747 8.16a1 1 0 01-1.494 0L.479 1.664z" fill="#DD6900"/></svg></svg>