<svg width="80" height="80" viewBox="0 0 80 80" fill="none" xmlns="http://www.w3.org/2000/svg">
<path d="M53.4303 50.837C51.5348 50.837 49.9928 49.5023 49.9928 47.8619C49.9928 46.2212 51.5348 44.8866 53.4303 44.8866C55.3257 44.8866 56.8677 46.2212 56.8677 47.8619C56.8677 48.7247 57.5674 49.4244 58.4302 49.4244C59.2931 49.4244 59.9927 48.7247 59.9927 47.8619C59.9927 44.9986 57.8593 42.5911 54.9928 41.9377V41.125C54.9928 40.2622 54.2931 39.5625 53.4303 39.5625C52.5674 39.5625 51.8678 40.2622 51.8678 41.125V41.9377C49.0012 42.5911 46.8678 44.9986 46.8678 47.8619C46.8678 51.2254 49.8117 53.962 53.4303 53.962C55.3257 53.962 56.8677 55.2967 56.8677 56.9373C56.8677 58.5779 55.3257 59.9126 53.4303 59.9126C51.5348 59.9126 49.9928 58.5779 49.9928 56.9373C49.9928 56.0745 49.2931 55.3748 48.4303 55.3748C47.5675 55.3748 46.8678 56.0745 46.8678 56.9373C46.8678 59.8006 49.0012 62.2081 51.8678 62.8615V63.5365C51.8678 64.3993 52.5674 65.099 53.4303 65.099C54.2931 65.099 54.9928 64.3993 54.9928 63.5365V62.8615C57.8593 62.2081 59.9927 59.8006 59.9927 56.9373C59.9927 53.5736 57.0488 50.837 53.4303 50.837Z" fill="#A7A7A7"/>
<path d="M70.5439 41.543C68.5029 38.3625 65.6272 35.8175 62.228 34.1835C61.45 33.8094 60.5165 34.1369 60.1427 34.9147C59.7688 35.6925 60.0961 36.626 60.874 36.9999C66.7975 39.8474 70.6249 45.9316 70.6249 52.5C70.6249 55.3106 69.9321 58.098 68.6216 60.5611C68.2163 61.3228 68.5052 62.2691 69.2671 62.6744C69.5008 62.7987 69.7521 62.8578 69.9996 62.8578C70.5586 62.8578 71.0994 62.5569 71.3803 62.0289C72.9305 59.1158 73.7499 55.8206 73.7499 52.5C73.7499 48.6 72.6413 44.8111 70.5439 41.543Z" fill="#A7A7A7"/>
<path d="M55.8863 32.1877L55.7811 32.1876C54.9183 32.1876 54.2186 32.8871 54.2186 33.7501C54.2186 34.613 54.9183 35.3126 55.7811 35.3126L55.8716 35.3127C55.8741 35.3127 55.8764 35.3127 55.8791 35.3127C56.7386 35.3127 57.4374 34.618 57.4414 33.7576C57.4453 32.8946 56.7491 32.1918 55.8863 32.1877Z" fill="#A7A7A7"/>
<path d="M46.001 68.0003C40.0776 65.1527 36.2502 59.0685 36.2502 52.5002C36.2502 49.6896 36.943 46.9023 38.2535 44.4391C38.6588 43.6774 38.3699 42.7312 37.608 42.3259C36.8465 41.9206 35.8999 42.2095 35.4948 42.9713C33.9446 45.8846 33.1252 49.1796 33.1252 52.5002C33.1252 56.4002 34.2338 60.1889 36.3312 63.4572C38.3723 66.6377 41.2479 69.1827 44.6471 70.8169C44.8654 70.9219 45.096 70.9714 45.323 70.9714C45.9049 70.9714 46.4633 70.645 46.7324 70.0856C47.106 69.3078 46.7788 68.3742 46.001 68.0003Z" fill="#A7A7A7"/>
<path d="M51.094 69.6875L51.0035 69.6872C50.1366 69.6856 49.4379 70.3792 49.434 71.2424C49.4299 72.1053 50.1265 72.8081 50.9893 72.8122L51.094 72.8125C51.9568 72.8125 52.6565 72.1128 52.6565 71.25C52.6565 70.3872 51.9568 69.6875 51.094 69.6875Z" fill="#A7A7A7"/>
<path d="M60.5325 26.9012C60.3424 26.4481 60.1094 26.021 59.8383 25.625H63.9061C67.8692 25.625 71.0936 22.4006 71.0936 18.4375C71.0936 14.4743 67.8692 11.25 63.9061 11.25H51.3937C52.1891 10.0934 52.6562 8.6942 52.6562 7.18749C52.6562 3.22437 49.4318 0 45.4687 0H7.18749C3.22437 0 0 3.22437 0 7.18749C0 11.1506 3.22437 14.375 7.18749 14.375H19.7C18.9045 15.5315 18.4375 16.9307 18.4375 18.4375C18.4375 19.9442 18.9043 21.3434 19.7 22.5H15.625C11.6619 22.5 8.43748 25.7243 8.43748 29.6874C8.43748 31.9635 9.50217 33.9946 11.1586 35.3124C9.50217 36.6302 8.43748 38.6613 8.43748 40.9374C8.43748 43.2135 9.50217 45.2446 11.1586 46.5624C9.50217 47.8802 8.43748 49.9113 8.43748 52.1874C8.43748 54.4635 9.50217 56.4946 11.1586 57.8124C9.50217 59.1302 8.43748 61.1613 8.43748 63.4374C8.43748 67.4005 11.6619 70.6249 15.625 70.6249H34.039C38.8899 75.8134 45.7909 79.0625 53.4376 79.0625C68.0841 79.0625 80 67.1466 80 52.5001C80 40.3099 71.7453 30.0129 60.5325 26.9012ZM63.9061 14.375C66.1463 14.375 67.9686 16.1975 67.9686 18.4375C67.9686 20.6775 66.1463 22.5 63.9061 22.5H53.9061H25.625C23.3848 22.5 21.5625 20.6775 21.5625 18.4375C21.5625 16.1975 23.3848 14.375 25.625 14.375H63.9061ZM7.18749 11.25C4.94733 11.25 3.12499 9.42748 3.12499 7.18749C3.12499 4.94749 4.94733 3.12499 7.18749 3.12499H45.4687C47.7088 3.12499 49.5312 4.94749 49.5312 7.18749C49.5312 9.42748 47.7088 11.25 45.4687 11.25H7.18749ZM15.625 25.625H53.9061C54.5355 25.625 55.1382 25.7712 55.6788 26.0331C54.9397 25.971 54.1926 25.9376 53.4376 25.9376C46.1024 25.9376 39.4524 28.9265 34.6409 33.7499H15.625C13.385 33.7499 11.5625 31.9274 11.5625 29.6874C11.5625 27.4474 13.385 25.625 15.625 25.625ZM15.625 36.8749H31.971C30.1973 39.3051 28.8259 42.046 27.9549 44.9999H15.625C13.3848 44.9999 11.5625 43.1776 11.5625 40.9374C11.5625 38.6974 13.3848 36.8749 15.625 36.8749ZM15.625 48.1249H27.2374C27.0004 49.5488 26.8751 51.0099 26.8751 52.5001C26.8751 53.7729 26.9671 55.0244 27.141 56.2499H15.625C13.3848 56.2499 11.5625 54.4276 11.5625 52.1874C11.5625 49.9473 13.3848 48.1249 15.625 48.1249ZM15.625 67.4999C13.3848 67.4999 11.5625 65.6775 11.5625 63.4374C11.5625 61.1972 13.3848 59.3749 15.625 59.3749H27.779C28.5674 62.3144 29.8482 65.0539 31.5279 67.4999H15.625ZM53.4376 75.9375C40.5141 75.9375 30.0001 65.4235 30.0001 52.5001C30.0001 39.5766 40.5141 29.0626 53.4376 29.0626C66.361 29.0626 76.875 39.5766 76.875 52.5001C76.875 65.4235 66.361 75.9375 53.4376 75.9375Z" fill="#A7A7A7"/>
</svg>
